# WaveFront *.obj file (generated by Autodesk ATF)

mtllib c6c7bb03-a52f-4f54-a6e2-e2ce754d6abd.mtl

g Body1

v 5.800000 -14.250000 0.000000
v 5.800000 -14.250000 10.200000
v 5.800000 -12.250000 10.200000
v 5.800000 -12.250000 0.000000
v -5.800000 -14.250000 10.200000
v -5.800000 -12.250000 10.200000
v -5.800000 -14.250000 0.000000
v -5.800000 -12.250000 0.000000
v 18.250000 -14.250000 0.000000
v 18.250000 -14.250000 20.000000
v -18.250000 -14.250000 20.000000
v -18.250000 -14.250000 0.000000
v 10.160000 9.050000 5.000000
v 7.821731 7.700000 5.000000
v 7.821731 7.700000 2.700000
v 10.160000 9.050000 2.700000
v 7.821731 5.000000 5.000000
v 7.821731 5.000000 2.700000
v 10.160000 3.650000 5.000000
v 10.160000 3.650000 2.700000
v 12.498269 5.000000 5.000000
v 12.498269 5.000000 2.700000
v 12.498269 7.700000 5.000000
v 12.498269 7.700000 2.700000
v 10.160000 -9.050000 5.000000
v 12.498269 -7.700000 5.000000
v 12.498269 -7.700000 2.700000
v 10.160000 -9.050000 2.700000
v 12.498269 -5.000000 5.000000
v 12.498269 -5.000000 2.700000
v 10.160000 -3.650000 5.000000
v 10.160000 -3.650000 2.700000
v 7.821731 -5.000000 5.000000
v 7.821731 -5.000000 2.700000
v 7.821731 -7.700000 5.000000
v 7.821731 -7.700000 2.700000
v -10.160000 9.050000 5.000000
v -12.498269 7.700000 5.000000
v -12.498269 7.700000 2.700000
v -10.160000 9.050000 2.700000
v -12.498269 5.000000 5.000000
v -12.498269 5.000000 2.700000
v -10.160000 3.650000 5.000000
v -10.160000 3.650000 2.700000
v -7.821731 5.000000 5.000000
v -7.821731 5.000000 2.700000
v -7.821731 7.700000 5.000000
v -7.821731 7.700000 2.700000
v -10.160000 -9.050000 5.000000
v -7.821731 -7.700000 5.000000
v -7.821731 -7.700000 2.700000
v -10.160000 -9.050000 2.700000
v -7.821731 -5.000000 5.000000
v -7.821731 -5.000000 2.700000
v -10.160000 -3.650000 5.000000
v -10.160000 -3.650000 2.700000
v -12.498269 -5.000000 5.000000
v -12.498269 -5.000000 2.700000
v -12.498269 -7.700000 5.000000
v -12.498269 -7.700000 2.700000
v 2.500000 7.500000 5.000000
v -2.500000 7.500000 5.000000
v -2.500000 7.500000 0.000000
v 2.500000 7.500000 0.000000
v -2.500000 -7.500000 5.000000
v -2.500000 -7.500000 0.000000
v 2.500000 -7.500000 5.000000
v 2.500000 -7.500000 0.000000
v -13.250000 9.250000 5.000000
v 13.250000 9.250000 5.000000
v 13.250000 9.250000 20.000000
v -13.250000 9.250000 20.000000
v 13.250000 -9.250000 5.000000
v 13.250000 -9.250000 20.000000
v -13.250000 -9.250000 5.000000
v -13.250000 -9.250000 20.000000
v 18.250000 14.250000 0.000000
v -18.250000 14.250000 0.000000
v -18.250000 14.250000 20.000000
v 18.250000 14.250000 20.000000
vt -1.020000 0.000000 0.000000
vt 0.000000 0.000000 0.000000
vt -1.020000 0.200000 0.000000
vt 0.000000 0.200000 0.000000
vt -1.160000 0.000000 0.000000
vt -0.000000 0.000000 0.000000
vt -1.160000 0.200000 0.000000
vt -0.000000 0.200000 0.000000
vt -1.020000 0.000000 0.000000
vt -0.000000 0.000000 0.000000
vt -1.020000 0.200000 0.000000
vt -0.000000 0.200000 0.000000
vt -0.510000 -0.580000 0.000000
vt 0.510000 -0.580000 0.000000
vt -0.510000 0.580000 0.000000
vt 0.510000 0.580000 0.000000
vt 1.245000 0.000000 0.000000
vt 1.245000 1.020000 0.000000
vt 0.000000 0.000000 0.000000
vt 0.000000 2.000000 0.000000
vt 2.405000 1.020000 0.000000
vt 3.650000 2.000000 0.000000
vt 3.650000 0.000000 0.000000
vt 2.405000 0.000000 0.000000
vt -0.270000 0.000000 0.000000
vt -0.000000 0.000000 0.000000
vt -0.270000 0.230000 0.000000
vt -0.000000 0.230000 0.000000
vt -0.270000 0.000000 0.000000
vt -0.000000 0.000000 0.000000
vt -0.270000 0.230000 0.000000
vt -0.000000 0.230000 0.000000
vt -0.270000 0.000000 0.000000
vt -0.000000 0.000000 0.000000
vt -0.270000 0.230000 0.000000
vt -0.000000 0.230000 0.000000
vt -0.270000 -0.000000 0.000000
vt 0.000000 0.000000 0.000000
vt -0.270000 0.230000 0.000000
vt -0.000000 0.230000 0.000000
vt -0.270000 0.000000 0.000000
vt 0.000000 0.000000 0.000000
vt -0.270000 0.230000 0.000000
vt -0.000000 0.230000 0.000000
vt -0.270000 0.000000 0.000000
vt -0.000000 0.000000 0.000000
vt -0.270000 0.230000 0.000000
vt -0.000000 0.230000 0.000000
vt 0.233827 0.135000 0.000000
vt -0.000000 0.270000 0.000000
vt 0.233827 -0.135000 0.000000
vt -0.000000 -0.270000 0.000000
vt -0.233827 0.135000 0.000000
vt -0.233827 -0.135000 0.000000
vt -0.270000 -0.000000 0.000000
vt 0.000000 0.000000 0.000000
vt -0.270000 0.230000 0.000000
vt -0.000000 0.230000 0.000000
vt -0.270000 0.000000 0.000000
vt 0.000000 0.000000 0.000000
vt -0.270000 0.230000 0.000000
vt -0.000000 0.230000 0.000000
vt -0.270000 0.000000 0.000000
vt -0.000000 0.000000 0.000000
vt -0.270000 0.230000 0.000000
vt -0.000000 0.230000 0.000000
vt -0.270000 0.000000 0.000000
vt -0.000000 0.000000 0.000000
vt -0.270000 0.230000 0.000000
vt -0.000000 0.230000 0.000000
vt -0.270000 0.000000 0.000000
vt -0.000000 0.000000 0.000000
vt -0.270000 0.230000 0.000000
vt -0.000000 0.230000 0.000000
vt -0.270000 0.000000 0.000000
vt -0.000000 0.000000 0.000000
vt -0.270000 0.230000 0.000000
vt -0.000000 0.230000 0.000000
vt -0.233827 -0.135000 0.000000
vt -0.000000 -0.270000 0.000000
vt -0.233827 0.135000 0.000000
vt -0.000000 0.270000 0.000000
vt 0.233827 -0.135000 0.000000
vt 0.233827 0.135000 0.000000
vt -0.270000 0.000000 0.000000
vt -0.000000 0.000000 0.000000
vt -0.270000 0.230000 0.000000
vt -0.000000 0.230000 0.000000
vt -0.270000 0.000000 0.000000
vt -0.000000 0.000000 0.000000
vt -0.270000 0.230000 0.000000
vt -0.000000 0.230000 0.000000
vt -0.270000 0.000000 0.000000
vt -0.000000 0.000000 0.000000
vt -0.270000 0.230000 0.000000
vt -0.000000 0.230000 0.000000
vt -0.270000 -0.000000 0.000000
vt 0.000000 0.000000 0.000000
vt -0.270000 0.230000 0.000000
vt -0.000000 0.230000 0.000000
vt -0.270000 0.000000 0.000000
vt 0.000000 0.000000 0.000000
vt -0.270000 0.230000 0.000000
vt -0.000000 0.230000 0.000000
vt -0.270000 0.000000 0.000000
vt -0.000000 0.000000 0.000000
vt -0.270000 0.230000 0.000000
vt -0.000000 0.230000 0.000000
vt 0.233827 0.135000 0.000000
vt -0.000000 0.270000 0.000000
vt 0.233827 -0.135000 0.000000
vt -0.000000 -0.270000 0.000000
vt -0.233827 0.135000 0.000000
vt -0.233827 -0.135000 0.000000
vt -0.270000 -0.000000 0.000000
vt 0.000000 0.000000 0.000000
vt -0.270000 0.230000 0.000000
vt -0.000000 0.230000 0.000000
vt -0.270000 -0.000000 0.000000
vt 0.000000 0.000000 0.000000
vt -0.270000 0.230000 0.000000
vt -0.000000 0.230000 0.000000
vt -0.270000 0.000000 0.000000
vt -0.000000 0.000000 0.000000
vt -0.270000 0.230000 0.000000
vt -0.000000 0.230000 0.000000
vt -0.270000 0.000000 0.000000
vt -0.000000 0.000000 0.000000
vt -0.270000 0.230000 0.000000
vt -0.000000 0.230000 0.000000
vt -0.270000 0.000000 0.000000
vt -0.000000 0.000000 0.000000
vt -0.270000 0.230000 0.000000
vt -0.000000 0.230000 0.000000
vt -0.270000 0.000000 0.000000
vt -0.000000 0.000000 0.000000
vt -0.270000 0.230000 0.000000
vt -0.000000 0.230000 0.000000
vt -0.233827 -0.135000 0.000000
vt -0.000000 -0.270000 0.000000
vt -0.233827 0.135000 0.000000
vt 0.000000 0.270000 0.000000
vt 0.233827 -0.135000 0.000000
vt 0.233827 0.135000 0.000000
vt -0.500000 0.000000 0.000000
vt -0.000000 0.000000 0.000000
vt -0.500000 0.500000 0.000000
vt -0.000000 0.500000 0.000000
vt -1.500000 0.000000 0.000000
vt -0.000000 0.000000 0.000000
vt -1.500000 0.500000 0.000000
vt -0.000000 0.500000 0.000000
vt -0.500000 0.000000 0.000000
vt 0.000000 0.000000 0.000000
vt -0.500000 0.500000 0.000000
vt -0.000000 0.500000 0.000000
vt -1.500000 0.000000 0.000000
vt 0.000000 0.000000 0.000000
vt -1.500000 0.500000 0.000000
vt -0.000000 0.500000 0.000000
vt 0.000000 0.500000 0.000000
vt 2.650000 0.500000 0.000000
vt 0.000000 2.000000 0.000000
vt 2.650000 2.000000 0.000000
vt -0.000000 0.500000 0.000000
vt 1.850000 0.500000 0.000000
vt -0.000000 2.000000 0.000000
vt 1.850000 2.000000 0.000000
vt 0.000000 0.500000 0.000000
vt 1.850000 0.500000 0.000000
vt 0.000000 2.000000 0.000000
vt 1.850000 2.000000 0.000000
vt -0.000000 0.500000 0.000000
vt 2.650000 0.500000 0.000000
vt -0.000000 2.000000 0.000000
vt 2.650000 2.000000 0.000000
vt 0.000000 0.000000 0.000000
vt 3.650000 0.000000 0.000000
vt 0.000000 2.000000 0.000000
vt 3.650000 2.000000 0.000000
vt 0.000000 0.000000 0.000000
vt 2.850000 0.000000 0.000000
vt 0.000000 2.000000 0.000000
vt 2.850000 2.000000 0.000000
vt 0.000000 0.000000 0.000000
vt 2.850000 0.000000 0.000000
vt 0.000000 2.000000 0.000000
vt 2.850000 2.000000 0.000000
vt 1.325000 -0.925000 0.000000
vt 1.825000 -1.425000 0.000000
vt 1.325000 0.925000 0.000000
vt 1.825000 1.425000 0.000000
vt -1.825000 1.425000 0.000000
vt -1.325000 -0.925000 0.000000
vt -1.825000 -1.425000 0.000000
vt -1.325000 0.925000 0.000000
vt 0.782173 0.500000 0.000000
vt 0.782173 0.770000 0.000000
vt 0.250000 0.750000 0.000000
vt 1.016000 0.905000 0.000000
vt -1.016000 0.905000 0.000000
vt -1.325000 0.925000 0.000000
vt -1.249827 0.770000 0.000000
vt -1.249827 0.500000 0.000000
vt -1.325000 -0.925000 0.000000
vt -1.249827 -0.500000 0.000000
vt -1.249827 -0.770000 0.000000
vt -1.016000 -0.905000 0.000000
vt 1.325000 -0.925000 0.000000
vt 1.016000 -0.905000 0.000000
vt 1.249827 -0.770000 0.000000
vt 1.249827 -0.500000 0.000000
vt 1.249827 0.500000 0.000000
vt 1.016000 0.365000 0.000000
vt 1.325000 0.925000 0.000000
vt 1.249827 0.770000 0.000000
vt 1.016000 -0.365000 0.000000
vt 0.782173 -0.500000 0.000000
vt 0.250000 -0.750000 0.000000
vt 0.782173 -0.770000 0.000000
vt -0.250000 -0.750000 0.000000
vt -0.782173 -0.770000 0.000000
vt -0.782173 -0.500000 0.000000
vt -0.782173 0.500000 0.000000
vt -1.016000 -0.365000 0.000000
vt -1.016000 0.365000 0.000000
vt -0.250000 0.750000 0.000000
vt -0.782173 0.770000 0.000000
vt 0.580000 -1.425000 0.000000
vt 1.825000 -1.425000 0.000000
vt 0.580000 -1.225000 0.000000
vt 0.250000 -0.750000 0.000000
vt -0.250000 -0.750000 0.000000
vt 0.250000 0.750000 0.000000
vt 1.825000 1.425000 0.000000
vt -1.825000 1.425000 0.000000
vt -0.250000 0.750000 0.000000
vt -1.825000 -1.425000 0.000000
vt -0.580000 -1.225000 0.000000
vt -0.580000 -1.425000 0.000000
vn -0.100000 0.000000 0.000000
vn -0.100000 0.000000 0.000000
vn -0.100000 0.000000 0.000000
vn -0.100000 0.000000 0.000000
vn -0.000000 0.000000 -0.100000
vn -0.000000 0.000000 -0.100000
vn -0.000000 0.000000 -0.100000
vn -0.000000 0.000000 -0.100000
vn 0.100000 0.000000 0.000000
vn 0.100000 0.000000 0.000000
vn 0.100000 0.000000 0.000000
vn 0.100000 0.000000 0.000000
vn 0.000000 -0.100000 0.000000
vn 0.000000 -0.100000 0.000000
vn 0.000000 -0.100000 0.000000
vn 0.000000 -0.100000 0.000000
vn 0.000000 -0.100000 0.000000
vn 0.000000 -0.100000 0.000000
vn 0.000000 -0.100000 0.000000
vn 0.000000 -0.100000 0.000000
vn 0.000000 -0.100000 0.000000
vn 0.000000 -0.100000 0.000000
vn 0.000000 -0.100000 0.000000
vn 0.000000 -0.100000 0.000000
vn 0.050000 -0.086603 0.000000
vn 0.050000 -0.086603 0.000000
vn 0.050000 -0.086603 0.000000
vn 0.050000 -0.086603 0.000000
vn 0.100000 0.000000 0.000000
vn 0.100000 0.000000 0.000000
vn 0.100000 0.000000 0.000000
vn 0.100000 0.000000 0.000000
vn 0.050000 0.086603 0.000000
vn 0.050000 0.086603 0.000000
vn 0.050000 0.086603 0.000000
vn 0.050000 0.086603 0.000000
vn -0.050000 0.086603 -0.000000
vn -0.050000 0.086603 -0.000000
vn -0.050000 0.086603 -0.000000
vn -0.050000 0.086603 -0.000000
vn -0.100000 0.000000 -0.000000
vn -0.100000 0.000000 -0.000000
vn -0.100000 0.000000 -0.000000
vn -0.100000 0.000000 -0.000000
vn -0.050000 -0.086603 0.000000
vn -0.050000 -0.086603 0.000000
vn -0.050000 -0.086603 0.000000
vn -0.050000 -0.086603 0.000000
vn 0.000000 0.000000 0.100000
vn 0.000000 0.000000 0.100000
vn 0.000000 0.000000 0.100000
vn 0.000000 0.000000 0.100000
vn 0.000000 0.000000 0.100000
vn 0.000000 0.000000 0.100000
vn -0.050000 0.086603 -0.000000
vn -0.050000 0.086603 -0.000000
vn -0.050000 0.086603 -0.000000
vn -0.050000 0.086603 -0.000000
vn -0.100000 0.000000 -0.000000
vn -0.100000 0.000000 -0.000000
vn -0.100000 0.000000 -0.000000
vn -0.100000 0.000000 -0.000000
vn -0.050000 -0.086603 0.000000
vn -0.050000 -0.086603 0.000000
vn -0.050000 -0.086603 0.000000
vn -0.050000 -0.086603 0.000000
vn 0.050000 -0.086603 0.000000
vn 0.050000 -0.086603 0.000000
vn 0.050000 -0.086603 0.000000
vn 0.050000 -0.086603 0.000000
vn 0.100000 0.000000 0.000000
vn 0.100000 0.000000 0.000000
vn 0.100000 0.000000 0.000000
vn 0.100000 0.000000 0.000000
vn 0.050000 0.086603 0.000000
vn 0.050000 0.086603 0.000000
vn 0.050000 0.086603 0.000000
vn 0.050000 0.086603 0.000000
vn 0.000000 0.000000 0.100000
vn 0.000000 0.000000 0.100000
vn 0.000000 0.000000 0.100000
vn 0.000000 0.000000 0.100000
vn 0.000000 0.000000 0.100000
vn 0.000000 0.000000 0.100000
vn 0.050000 -0.086603 0.000000
vn 0.050000 -0.086603 0.000000
vn 0.050000 -0.086603 0.000000
vn 0.050000 -0.086603 0.000000
vn 0.100000 0.000000 0.000000
vn 0.100000 0.000000 0.000000
vn 0.100000 0.000000 0.000000
vn 0.100000 0.000000 0.000000
vn 0.050000 0.086603 0.000000
vn 0.050000 0.086603 0.000000
vn 0.050000 0.086603 0.000000
vn 0.050000 0.086603 0.000000
vn -0.050000 0.086603 -0.000000
vn -0.050000 0.086603 -0.000000
vn -0.050000 0.086603 -0.000000
vn -0.050000 0.086603 -0.000000
vn -0.100000 0.000000 -0.000000
vn -0.100000 0.000000 -0.000000
vn -0.100000 0.000000 -0.000000
vn -0.100000 0.000000 -0.000000
vn -0.050000 -0.086603 0.000000
vn -0.050000 -0.086603 0.000000
vn -0.050000 -0.086603 0.000000
vn -0.050000 -0.086603 0.000000
vn 0.000000 0.000000 0.100000
vn 0.000000 0.000000 0.100000
vn 0.000000 0.000000 0.100000
vn 0.000000 0.000000 0.100000
vn 0.000000 0.000000 0.100000
vn 0.000000 0.000000 0.100000
vn -0.050000 0.086603 -0.000000
vn -0.050000 0.086603 -0.000000
vn -0.050000 0.086603 -0.000000
vn -0.050000 0.086603 -0.000000
vn -0.100000 0.000000 -0.000000
vn -0.100000 0.000000 -0.000000
vn -0.100000 0.000000 -0.000000
vn -0.100000 0.000000 -0.000000
vn -0.050000 -0.086603 0.000000
vn -0.050000 -0.086603 0.000000
vn -0.050000 -0.086603 0.000000
vn -0.050000 -0.086603 0.000000
vn 0.050000 -0.086603 0.000000
vn 0.050000 -0.086603 0.000000
vn 0.050000 -0.086603 0.000000
vn 0.050000 -0.086603 0.000000
vn 0.100000 -0.000000 0.000000
vn 0.100000 -0.000000 0.000000
vn 0.100000 -0.000000 0.000000
vn 0.100000 -0.000000 0.000000
vn 0.050000 0.086603 0.000000
vn 0.050000 0.086603 0.000000
vn 0.050000 0.086603 0.000000
vn 0.050000 0.086603 0.000000
vn 0.000000 0.000000 0.100000
vn 0.000000 0.000000 0.100000
vn 0.000000 0.000000 0.100000
vn 0.000000 0.000000 0.100000
vn 0.000000 0.000000 0.100000
vn 0.000000 0.000000 0.100000
vn 0.000000 -0.100000 0.000000
vn 0.000000 -0.100000 0.000000
vn 0.000000 -0.100000 0.000000
vn 0.000000 -0.100000 0.000000
vn 0.100000 0.000000 0.000000
vn 0.100000 0.000000 0.000000
vn 0.100000 0.000000 0.000000
vn 0.100000 0.000000 0.000000
vn -0.000000 0.100000 -0.000000
vn -0.000000 0.100000 -0.000000
vn -0.000000 0.100000 -0.000000
vn -0.000000 0.100000 -0.000000
vn -0.100000 0.000000 -0.000000
vn -0.100000 0.000000 -0.000000
vn -0.100000 0.000000 -0.000000
vn -0.100000 0.000000 -0.000000
vn 0.000000 -0.100000 0.000000
vn 0.000000 -0.100000 0.000000
vn 0.000000 -0.100000 0.000000
vn 0.000000 -0.100000 0.000000
vn -0.100000 0.000000 0.000000
vn -0.100000 0.000000 0.000000
vn -0.100000 0.000000 0.000000
vn -0.100000 0.000000 0.000000
vn 0.100000 0.000000 0.000000
vn 0.100000 0.000000 0.000000
vn 0.100000 0.000000 0.000000
vn 0.100000 0.000000 0.000000
vn 0.000000 0.100000 0.000000
vn 0.000000 0.100000 0.000000
vn 0.000000 0.100000 0.000000
vn 0.000000 0.100000 0.000000
vn 0.000000 0.100000 0.000000
vn 0.000000 0.100000 0.000000
vn 0.000000 0.100000 0.000000
vn 0.000000 0.100000 0.000000
vn 0.100000 0.000000 0.000000
vn 0.100000 0.000000 0.000000
vn 0.100000 0.000000 0.000000
vn 0.100000 0.000000 0.000000
vn -0.100000 0.000000 0.000000
vn -0.100000 0.000000 0.000000
vn -0.100000 0.000000 0.000000
vn -0.100000 0.000000 0.000000
vn 0.000000 0.000000 0.100000
vn 0.000000 0.000000 0.100000
vn 0.000000 0.000000 0.100000
vn 0.000000 0.000000 0.100000
vn 0.000000 0.000000 0.100000
vn 0.000000 0.000000 0.100000
vn 0.000000 0.000000 0.100000
vn 0.000000 0.000000 0.100000
vn 0.000000 0.000000 0.100000
vn 0.000000 0.000000 0.100000
vn 0.000000 0.000000 0.100000
vn 0.000000 0.000000 0.100000
vn 0.000000 0.000000 0.100000
vn 0.000000 0.000000 0.100000
vn 0.000000 0.000000 0.100000
vn 0.000000 0.000000 0.100000
vn 0.000000 0.000000 0.100000
vn 0.000000 0.000000 0.100000
vn 0.000000 0.000000 0.100000
vn 0.000000 0.000000 0.100000
vn 0.000000 0.000000 0.100000
vn 0.000000 0.000000 0.100000
vn 0.000000 0.000000 0.100000
vn 0.000000 0.000000 0.100000
vn 0.000000 0.000000 0.100000
vn 0.000000 0.000000 0.100000
vn 0.000000 0.000000 0.100000
vn 0.000000 0.000000 0.100000
vn 0.000000 0.000000 0.100000
vn 0.000000 0.000000 0.100000
vn 0.000000 0.000000 0.100000
vn 0.000000 0.000000 0.100000
vn 0.000000 0.000000 0.100000
vn 0.000000 0.000000 0.100000
vn 0.000000 0.000000 0.100000
vn 0.000000 0.000000 0.100000
vn 0.000000 0.000000 0.100000
vn 0.000000 0.000000 0.100000
vn 0.000000 0.000000 0.100000
vn 0.000000 0.000000 0.100000
vn 0.000000 0.000000 -0.100000
vn 0.000000 0.000000 -0.100000
vn 0.000000 0.000000 -0.100000
vn 0.000000 0.000000 -0.100000
vn 0.000000 0.000000 -0.100000
vn 0.000000 0.000000 -0.100000
vn 0.000000 0.000000 -0.100000
vn 0.000000 0.000000 -0.100000
vn 0.000000 0.000000 -0.100000
vn 0.000000 0.000000 -0.100000
vn 0.000000 0.000000 -0.100000
vn 0.000000 0.000000 -0.100000
usemtl Steel_-_Satin
f 1/1/1 2/2/2 4/3/3
f 4/3/3 2/2/2 3/4/4
f 2/5/5 5/6/6 3/7/7
f 3/7/7 5/6/6 6/8/8
f 5/9/9 7/10/10 6/11/11
f 6/11/11 7/10/10 8/12/12
f 6/13/13 8/14/14 3/15/15
f 3/15/15 8/14/14 4/16/16
f 7/17/17 5/18/18 12/19/19
f 12/19/19 5/18/18 11/20/20
f 11/20/20 5/18/18 2/21/21
f 11/20/20 2/21/21 10/22/22
f 10/22/22 2/21/21 9/23/23
f 9/23/23 2/21/21 1/24/24
f 13/25/25 14/26/26 16/27/27
f 16/27/27 14/26/26 15/28/28
f 14/29/29 17/30/30 15/31/31
f 15/31/31 17/30/30 18/32/32
f 17/33/33 19/34/34 18/35/35
f 18/35/35 19/34/34 20/36/36
f 19/37/37 21/38/38 20/39/39
f 20/39/39 21/38/38 22/40/40
f 21/41/41 23/42/42 22/43/43
f 22/43/43 23/42/42 24/44/44
f 23/45/45 13/46/46 24/47/47
f 24/47/47 13/46/46 16/48/48
f 24/49/49 16/50/50 22/51/51
f 22/51/51 16/50/50 20/52/52
f 20/52/52 16/50/50 15/53/53
f 20/52/52 15/53/53 18/54/54
f 25/55/55 26/56/56 28/57/57
f 28/57/57 26/56/56 27/58/58
f 26/59/59 29/60/60 27/61/61
f 27/61/61 29/60/60 30/62/62
f 29/63/63 31/64/64 30/65/65
f 30/65/65 31/64/64 32/66/66
f 31/67/67 33/68/68 32/69/69
f 32/69/69 33/68/68 34/70/70
f 33/71/71 35/72/72 34/73/73
f 34/73/73 35/72/72 36/74/74
f 35/75/75 25/76/76 36/77/77
f 36/77/77 25/76/76 28/78/78
f 36/79/79 28/80/80 34/81/81
f 34/81/81 28/80/80 32/82/82
f 32/82/82 28/80/80 27/83/83
f 32/82/82 27/83/83 30/84/84
f 37/85/85 38/86/86 40/87/87
f 40/87/87 38/86/86 39/88/88
f 38/89/89 41/90/90 39/91/91
f 39/91/91 41/90/90 42/92/92
f 41/93/93 43/94/94 42/95/95
f 42/95/95 43/94/94 44/96/96
f 43/97/97 45/98/98 44/99/99
f 44/99/99 45/98/98 46/100/100
f 45/101/101 47/102/102 46/103/103
f 46/103/103 47/102/102 48/104/104
f 47/105/105 37/106/106 48/107/107
f 48/107/107 37/106/106 40/108/108
f 48/109/109 40/110/110 46/111/111
f 46/111/111 40/110/110 44/112/112
f 44/112/112 40/110/110 39/113/113
f 44/112/112 39/113/113 42/114/114
f 49/115/115 50/116/116 52/117/117
f 52/117/117 50/116/116 51/118/118
f 50/119/119 53/120/120 51/121/121
f 51/121/121 53/120/120 54/122/122
f 53/123/123 55/124/124 54/125/125
f 54/125/125 55/124/124 56/126/126
f 55/127/127 57/128/128 56/129/129
f 56/129/129 57/128/128 58/130/130
f 57/131/131 59/132/132 58/133/133
f 58/133/133 59/132/132 60/134/134
f 59/135/135 49/136/136 60/137/137
f 60/137/137 49/136/136 52/138/138
f 60/139/139 52/140/140 58/141/141
f 58/141/141 52/140/140 56/142/142
f 56/142/142 52/140/140 51/143/143
f 56/142/142 51/143/143 54/144/144
f 61/145/145 62/146/146 64/147/147
f 64/147/147 62/146/146 63/148/148
f 62/149/149 65/150/150 63/151/151
f 63/151/151 65/150/150 66/152/152
f 65/153/153 67/154/154 66/155/155
f 66/155/155 67/154/154 68/156/156
f 67/157/157 61/158/158 68/159/159
f 68/159/159 61/158/158 64/160/160
f 69/161/161 70/162/162 72/163/163
f 72/163/163 70/162/162 71/164/164
f 70/165/165 73/166/166 71/167/167
f 71/167/167 73/166/166 74/168/168
f 75/169/169 69/170/170 76/171/171
f 76/171/171 69/170/170 72/172/172
f 73/173/173 75/174/174 74/175/175
f 74/175/175 75/174/174 76/176/176
f 77/177/177 78/178/178 80/179/179
f 80/179/179 78/178/178 79/180/180
f 9/181/181 77/182/182 10/183/183
f 10/183/183 77/182/182 80/184/184
f 78/185/185 12/186/186 79/187/187
f 79/187/187 12/186/186 11/188/188
f 74/189/189 10/190/190 71/191/191
f 71/191/191 10/190/190 80/192/192
f 71/191/191 80/192/192 79/193/193
f 74/189/189 76/194/194 10/190/190
f 10/190/190 76/194/194 11/195/195
f 11/195/195 76/194/194 72/196/196
f 11/195/195 72/196/196 79/193/193
f 79/193/193 72/196/196 71/191/191
f 17/197/197 14/198/198 61/199/199
f 61/199/199 14/198/198 13/200/200
f 61/199/199 13/200/200 37/201/201
f 37/201/201 13/200/200 69/202/202
f 37/201/201 69/202/202 38/203/203
f 38/203/203 69/202/202 41/204/204
f 41/204/204 69/202/202 75/205/205
f 41/204/204 75/205/205 57/206/206
f 57/206/206 75/205/205 59/207/207
f 59/207/207 75/205/205 49/208/208
f 49/208/208 75/205/205 73/209/209
f 49/208/208 73/209/209 25/210/210
f 25/210/210 73/209/209 26/211/211
f 26/211/211 73/209/209 29/212/212
f 29/212/212 73/209/209 21/213/213
f 29/212/212 21/213/213 19/214/214
f 69/202/202 13/200/200 70/215/215
f 70/215/215 13/200/200 23/216/216
f 70/215/215 23/216/216 21/213/213
f 29/212/212 19/214/214 31/217/217
f 31/217/217 19/214/214 17/197/197
f 31/217/217 17/197/197 33/218/218
f 33/218/218 17/197/197 67/219/219
f 33/218/218 67/219/219 35/220/220
f 35/220/220 67/219/219 25/210/210
f 25/210/210 67/219/219 65/221/221
f 25/210/210 65/221/221 49/208/208
f 49/208/208 65/221/221 50/222/222
f 50/222/222 65/221/221 53/223/223
f 53/223/223 65/221/221 45/224/224
f 53/223/223 45/224/224 55/225/225
f 55/225/225 45/224/224 43/226/226
f 55/225/225 43/226/226 57/206/206
f 57/206/206 43/226/226 41/204/204
f 67/219/219 17/197/197 61/199/199
f 61/199/199 37/201/201 62/227/227
f 62/227/227 37/201/201 47/228/228
f 62/227/227 47/228/228 45/224/224
f 65/221/221 62/227/227 45/224/224
f 73/209/209 70/215/215 21/213/213
f 7/229/229 12/230/230 8/231/231
f 8/231/231 12/230/230 66/232/232
f 8/231/231 66/232/232 68/233/233
f 66/232/232 12/230/230 63/234/234
f 63/234/234 12/230/230 78/235/235
f 63/234/234 78/235/235 77/236/236
f 63/234/234 77/236/236 64/237/237
f 64/237/237 77/236/236 9/238/238
f 64/237/237 9/238/238 68/233/233
f 68/233/233 9/238/238 4/239/239
f 68/233/233 4/239/239 8/231/231
f 9/238/238 1/240/240 4/239/239
# 80 vertices
# 240 texture params
# 240 normals
# 160 facets

# 1 groups
